<svg xmlns="http://www.w3.org/2000/svg" width="21" height="24" viewBox="0 0 21 24" fill="none">
  <path d="M0 21.6257C0 22.8608 1.00205 23.8629 2.23714 23.8629H18.6429C19.8779 23.8629 20.88 22.8608 20.88 21.6257V8.94857H0V21.6257ZM14.9143 12.4907C14.9143 12.1831 15.166 11.9314 15.4736 11.9314H17.3379C17.6455 11.9314 17.8971 12.1831 17.8971 12.4907V14.355C17.8971 14.6626 17.6455 14.9143 17.3379 14.9143H15.4736C15.166 14.9143 14.9143 14.6626 14.9143 14.355V12.4907ZM14.9143 18.4564C14.9143 18.1488 15.166 17.8971 15.4736 17.8971H17.3379C17.6455 17.8971 17.8971 18.1488 17.8971 18.4564V20.3207C17.8971 20.6283 17.6455 20.88 17.3379 20.88H15.4736C15.166 20.88 14.9143 20.6283 14.9143 20.3207V18.4564ZM8.94857 12.4907C8.94857 12.1831 9.20025 11.9314 9.50786 11.9314H11.3721C11.6797 11.9314 11.9314 12.1831 11.9314 12.4907V14.355C11.9314 14.6626 11.6797 14.9143 11.3721 14.9143H9.50786C9.20025 14.9143 8.94857 14.6626 8.94857 14.355V12.4907ZM8.94857 18.4564C8.94857 18.1488 9.20025 17.8971 9.50786 17.8971H11.3721C11.6797 17.8971 11.9314 18.1488 11.9314 18.4564V20.3207C11.9314 20.6283 11.6797 20.88 11.3721 20.88H9.50786C9.20025 20.88 8.94857 20.6283 8.94857 20.3207V18.4564ZM2.98286 12.4907C2.98286 12.1831 3.23454 11.9314 3.54214 11.9314H5.40643C5.71404 11.9314 5.96571 12.1831 5.96571 12.4907V14.355C5.96571 14.6626 5.71404 14.9143 5.40643 14.9143H3.54214C3.23454 14.9143 2.98286 14.6626 2.98286 14.355V12.4907ZM2.98286 18.4564C2.98286 18.1488 3.23454 17.8971 3.54214 17.8971H5.40643C5.71404 17.8971 5.96571 18.1488 5.96571 18.4564V20.3207C5.96571 20.6283 5.71404 20.88 5.40643 20.88H3.54214C3.23454 20.88 2.98286 20.6283 2.98286 20.3207V18.4564ZM18.6429 2.98286H16.4057V0.745714C16.4057 0.335571 16.0701 0 15.66 0H14.1686C13.7584 0 13.4229 0.335571 13.4229 0.745714V2.98286H7.45714V0.745714C7.45714 0.335571 7.12157 0 6.71143 0H5.22C4.80986 0 4.47429 0.335571 4.47429 0.745714V2.98286H2.23714C1.00205 2.98286 0 3.98491 0 5.22V7.45714H20.88V5.22C20.88 3.98491 19.8779 2.98286 18.6429 2.98286Z" fill="black"/>
</svg>