<svg xmlns="http://www.w3.org/2000/svg" width="20" height="23" viewBox="0 0 20 23" fill="none">
  <path d="M17.2812 2.83764H13.1667C13.1667 1.27251 11.6906 0 9.875 0C8.05944 0 6.58333 1.27251 6.58333 2.83764H2.46875C1.10579 2.83764 0 3.79091 0 4.96588V20.5729C0 21.7479 1.10579 22.7011 2.46875 22.7011H17.2812C18.6442 22.7011 19.75 21.7479 19.75 20.5729V4.96588C19.75 3.79091 18.6442 2.83764 17.2812 2.83764ZM4.9375 18.7994C4.25345 18.7994 3.70312 18.325 3.70312 17.7353C3.70312 17.1456 4.25345 16.6712 4.9375 16.6712C5.62155 16.6712 6.17188 17.1456 6.17188 17.7353C6.17188 18.325 5.62155 18.7994 4.9375 18.7994ZM4.9375 14.5429C4.25345 14.5429 3.70312 14.0685 3.70312 13.4788C3.70312 12.8891 4.25345 12.4147 4.9375 12.4147C5.62155 12.4147 6.17188 12.8891 6.17188 13.4788C6.17188 14.0685 5.62155 14.5429 4.9375 14.5429ZM4.9375 10.2865C4.25345 10.2865 3.70312 9.81204 3.70312 9.22234C3.70312 8.63264 4.25345 8.15823 4.9375 8.15823C5.62155 8.15823 6.17188 8.63264 6.17188 9.22234C6.17188 9.81204 5.62155 10.2865 4.9375 10.2865ZM9.875 1.77353C10.559 1.77353 11.1094 2.24795 11.1094 2.83764C11.1094 3.42734 10.559 3.90176 9.875 3.90176C9.19095 3.90176 8.64062 3.42734 8.64062 2.83764C8.64062 2.24795 9.19095 1.77353 9.875 1.77353ZM16.4583 18.09C16.4583 18.2851 16.2732 18.4447 16.0469 18.4447H8.64062C8.41432 18.4447 8.22917 18.2851 8.22917 18.09V17.3806C8.22917 17.1855 8.41432 17.0259 8.64062 17.0259H16.0469C16.2732 17.0259 16.4583 17.1855 16.4583 17.3806V18.09ZM16.4583 13.8335C16.4583 14.0286 16.2732 14.1882 16.0469 14.1882H8.64062C8.41432 14.1882 8.22917 14.0286 8.22917 13.8335V13.1241C8.22917 12.929 8.41432 12.7694 8.64062 12.7694H16.0469C16.2732 12.7694 16.4583 12.929 16.4583 13.1241V13.8335ZM16.4583 9.57705C16.4583 9.77213 16.2732 9.93175 16.0469 9.93175H8.64062C8.41432 9.93175 8.22917 9.77213 8.22917 9.57705V8.86764C8.22917 8.67255 8.41432 8.51293 8.64062 8.51293H16.0469C16.2732 8.51293 16.4583 8.67255 16.4583 8.86764V9.57705Z" fill="black"/>
</svg>