<svg xmlns="http://www.w3.org/2000/svg" width="18" height="16" viewBox="0 0 18 16" fill="none">
  <path d="M10.4062 0H17.1562C17.6222 0 18 0.377754 18 0.84375V6.46875C18 6.93475 17.6222 7.3125 17.1562 7.3125H10.4062C9.94025 7.3125 9.5625 6.93475 9.5625 6.46875V0.84375C9.5625 0.377754 9.94025 0 10.4062 0ZM7.59375 0H0.84375C0.377754 0 0 0.377754 0 0.84375V6.46875C0 6.93475 0.377754 7.3125 0.84375 7.3125H7.59375C8.05975 7.3125 8.4375 6.93475 8.4375 6.46875V0.84375C8.4375 0.377754 8.05975 0 7.59375 0ZM0 9.28125V14.9062C0 15.3722 0.377754 15.75 0.84375 15.75H7.59375C8.05975 15.75 8.4375 15.3722 8.4375 14.9062V9.28125C8.4375 8.81525 8.05975 8.4375 7.59375 8.4375H0.84375C0.377754 8.4375 0 8.81525 0 9.28125ZM10.4062 15.75H17.1562C17.6222 15.75 18 15.3722 18 14.9062V9.28125C18 8.81525 17.6222 8.4375 17.1562 8.4375H10.4062C9.94025 8.4375 9.5625 8.81525 9.5625 9.28125V14.9062C9.5625 15.3722 9.94025 15.75 10.4062 15.75Z" fill="black"/>
</svg>