<svg xmlns="http://www.w3.org/2000/svg" width="150" height="150" viewBox="0 0 150 150" fill="none">
  <circle cx="75" cy="75" r="72.5" fill="white" stroke="#DD127B" stroke-width="5"/>
  <path d="M108.171 61.7167C104.14 43.9837 88.6719 36 75.0842 36C75.0842 36 75.0842 36 75.0459 36C61.4965 36 45.9897 43.9453 41.9595 61.6783C37.4687 81.484 49.5977 98.2574 60.5753 108.813C64.6439 112.728 69.8641 114.685 75.0842 114.685C80.3044 114.685 85.5245 112.728 89.5547 108.813C100.532 98.2574 112.661 81.5224 108.171 61.7167ZM75.0842 80.9466C68.4056 80.9466 62.9934 75.5346 62.9934 68.856C62.9934 62.1773 68.4056 56.7653 75.0842 56.7653C81.7629 56.7653 87.1749 62.1773 87.1749 68.856C87.1749 75.5346 81.7629 80.9466 75.0842 80.9466Z" fill="#DD127B"/>
</svg>