<svg xmlns="http://www.w3.org/2000/svg" width="47" height="38" viewBox="0 0 47 38" fill="none">
  <path d="M18.7288 19.2149C19.1877 19.6739 19.9317 19.6739 20.3907 19.2149L21.2212 18.3843C21.6802 17.9254 21.6802 17.1814 21.2212 16.7225L18.598 14.1L21.2205 11.4768C21.6795 11.0178 21.6795 10.2739 21.2205 9.81492L20.3899 8.98434C19.9309 8.52536 19.187 8.52536 18.728 8.98434L14.4437 13.2687C13.9847 13.7277 13.9847 14.4716 14.4437 14.9306L18.7288 19.2149ZM25.7795 18.3851L26.6101 19.2157C27.0691 19.6746 27.813 19.6746 28.272 19.2157L32.5563 14.9313C33.0153 14.4723 33.0153 13.7284 32.5563 13.2694L28.272 8.98508C27.813 8.52609 27.0691 8.52609 26.6101 8.98508L25.7795 9.81566C25.3205 10.2746 25.3205 11.0186 25.7795 11.4775L28.402 14.1L25.7795 16.7232C25.3205 17.1822 25.3205 17.9261 25.7795 18.3851ZM45.825 30.55H28.0193C27.965 32.0048 26.9391 32.9 25.615 32.9H21.15C19.7775 32.9 18.7251 31.617 18.7435 30.55H1.175C0.52875 30.55 0 31.0787 0 31.725V32.9C0 35.485 2.115 37.6 4.7 37.6H42.3C44.885 37.6 47 35.485 47 32.9V31.725C47 31.0787 46.4712 30.55 45.825 30.55ZM42.3 3.525C42.3 1.58625 40.7137 0 38.775 0H8.225C6.28625 0 4.7 1.58625 4.7 3.525V28.2H42.3V3.525ZM37.6 23.5H9.4V4.7H37.6V23.5Z" fill="black"/>
</svg>