<svg xmlns="http://www.w3.org/2000/svg" width="38" height="50" viewBox="0 0 38 50" fill="none">
  <path d="M37.29 11.8416V12.43H24.86V0H25.4484C26.0665 0 26.6593 0.245589 27.0964 0.682581L36.6074 10.1936C37.0444 10.6307 37.29 11.2235 37.29 11.8416ZM24.0831 15.5375C22.8013 15.5375 21.7525 14.4887 21.7525 13.2069V0H2.33063C1.04344 0 0 1.04344 0 2.33062V47.3894C0 48.6765 1.04344 49.72 2.33063 49.72H34.9594C36.2466 49.72 37.29 48.6765 37.29 47.3894V15.5375H24.0831ZM11.9645 38.8928C11.9174 38.943 11.8608 38.9835 11.7981 39.0119C11.7353 39.0403 11.6676 39.056 11.5988 39.0582C11.53 39.0605 11.4614 39.0491 11.3969 39.0248C11.3325 39.0005 11.2735 38.9638 11.2232 38.9167L4.92413 33.0112C4.87181 32.9622 4.83011 32.9029 4.8016 32.8371C4.7731 32.7713 4.75839 32.7004 4.75839 32.6287C4.75839 32.557 4.7731 32.486 4.8016 32.4202C4.83011 32.3544 4.87181 32.2952 4.92413 32.2461L11.2232 26.3407C11.2735 26.2936 11.3325 26.2569 11.3969 26.2326C11.4614 26.2083 11.53 26.1969 11.5988 26.1991C11.6676 26.2014 11.7353 26.2171 11.7981 26.2455C11.8608 26.2739 11.9174 26.3144 11.9645 26.3646L13.8658 28.3927C13.9138 28.444 13.9511 28.5044 13.9753 28.5703C13.9996 28.6362 14.0104 28.7064 14.007 28.7765C14.0036 28.8467 13.9862 28.9155 13.9557 28.9788C13.9253 29.0421 13.8824 29.0986 13.8296 29.145L9.87117 32.6287L13.8296 36.1124C13.8824 36.1588 13.9253 36.2154 13.9557 36.2787C13.9862 36.342 14.0036 36.4108 14.007 36.4809C14.0104 36.5511 13.9996 36.6212 13.9753 36.6872C13.9511 36.7531 13.9138 36.8135 13.8658 36.8647L11.9645 38.8928ZM16.9457 43.7948L14.2797 43.0208C14.1462 42.982 14.0335 42.8917 13.9665 42.7699C13.8994 42.648 13.8835 42.5045 13.9223 42.3709L19.8887 21.8201C19.9275 21.6865 20.0177 21.5738 20.1396 21.5068C20.2615 21.4398 20.405 21.4239 20.5385 21.4626L23.2044 22.2366C23.2705 22.2558 23.3322 22.2878 23.386 22.3309C23.4397 22.3739 23.4845 22.4271 23.5177 22.4875C23.5508 22.5478 23.5718 22.6141 23.5794 22.6826C23.5869 22.751 23.581 22.8203 23.5617 22.8864L17.5953 43.4373C17.5762 43.5034 17.5442 43.5652 17.5012 43.6189C17.4581 43.6727 17.4049 43.7175 17.3446 43.7507C17.2843 43.7839 17.218 43.8048 17.1495 43.8124C17.0811 43.82 17.0118 43.814 16.9457 43.7948ZM32.5601 33.0112L26.261 38.9167C26.2108 38.9638 26.1517 39.0005 26.0873 39.0248C26.0229 39.0491 25.9543 39.0605 25.8854 39.0582C25.8166 39.056 25.7489 39.0403 25.6861 39.0119C25.6234 38.9835 25.5669 38.943 25.5198 38.8928L23.6184 36.8646C23.5703 36.8134 23.5331 36.753 23.5088 36.6871C23.4845 36.6211 23.4738 36.551 23.4771 36.4808C23.4805 36.4107 23.4979 36.3419 23.5284 36.2786C23.5589 36.2153 23.6017 36.1587 23.6545 36.1123L27.6131 32.6287L23.6546 29.145C23.6018 29.0986 23.559 29.0421 23.5285 28.9788C23.498 28.9155 23.4806 28.8467 23.4772 28.7765C23.4739 28.7064 23.4846 28.6362 23.5089 28.5703C23.5331 28.5044 23.5704 28.444 23.6185 28.3927L25.5199 26.3646C25.567 26.3144 25.6235 26.2739 25.6862 26.2455C25.749 26.2171 25.8167 26.2014 25.8855 26.1991C25.9544 26.1969 26.023 26.2083 26.0874 26.2326C26.1518 26.2569 26.2109 26.2936 26.2611 26.3407L32.5602 32.2461C32.6125 32.2952 32.6542 32.3544 32.6827 32.4202C32.7112 32.486 32.7259 32.557 32.7259 32.6287C32.7259 32.7004 32.7112 32.7714 32.6826 32.8372C32.6541 32.903 32.6124 32.9622 32.5601 33.0112Z" fill="black"/>
</svg>