<svg width="32" height="37" viewBox="0 0 32 37" fill="none" xmlns="http://www.w3.org/2000/svg">
<g id="&#240;&#159;&#166;&#134; icon &#34;location&#34;">
<g id="Group">
<path id="Vector" d="M15.9966 22.0383C12.3631 22.0383 9.39502 19.0873 9.39502 15.4369C9.39502 11.7865 12.3631 8.85254 15.9966 8.85254C19.6299 8.85254 22.598 11.8036 22.598 15.4539C22.598 19.1044 19.6299 22.0383 15.9966 22.0383ZM15.9966 11.4112C13.779 11.4112 11.9537 13.2194 11.9537 15.4539C11.9537 17.6885 13.7619 19.4967 15.9966 19.4967C18.2312 19.4967 20.0393 17.6885 20.0393 15.4539C20.0393 13.2194 18.2141 11.4112 15.9966 11.4112Z" fill="black"/>
<path id="Vector_2" d="M15.9947 36.6919C13.4701 36.6919 10.9285 35.7366 8.94975 33.8432C3.91762 28.9987 -1.6433 21.2714 0.454838 12.0771C2.34828 3.73571 9.63207 0 15.9947 0H16.0118C22.3745 0 29.6582 3.73571 31.5517 12.0942C33.6328 21.2885 28.0718 28.9987 23.0397 33.8432C21.061 35.7366 18.5193 36.6919 15.9947 36.6919ZM15.9947 2.55871C11.0308 2.55871 4.65112 5.20271 2.96237 12.64C1.1201 20.6744 6.16928 27.5999 10.7408 31.9838C13.6919 34.8325 18.3146 34.8325 21.2657 31.9838C25.8202 27.5999 30.8694 20.6744 29.0612 12.64C27.3554 5.20271 20.9586 2.55871 15.9947 2.55871Z" fill="black"/>
</g>
</g>
</svg>
