<svg xmlns="http://www.w3.org/2000/svg" width="21" height="21" viewBox="0 0 21 21" fill="none">
  <path d="M19.3886 8.20286H12.6771V1.49143C12.6771 0.66788 12.0093 0 11.1857 0H9.69429C8.87074 0 8.20286 0.66788 8.20286 1.49143V8.20286H1.49143C0.66788 8.20286 0 8.87074 0 9.69429V11.1857C0 12.0093 0.66788 12.6771 1.49143 12.6771H8.20286V19.3886C8.20286 20.2121 8.87074 20.88 9.69429 20.88H11.1857C12.0093 20.88 12.6771 20.2121 12.6771 19.3886V12.6771H19.3886C20.2121 12.6771 20.88 12.0093 20.88 11.1857V9.69429C20.88 8.87074 20.2121 8.20286 19.3886 8.20286Z" fill="black"/>
</svg>