<svg xmlns="http://www.w3.org/2000/svg" width="25" height="20" viewBox="0 0 25 20" fill="none">
  <path d="M24.6328 14.2539L21.1055 10.7305C20.6367 10.2617 20 10 19.3359 10H16.2383C15.5469 10 14.9883 10.5586 14.9883 11.25V14.3438C14.9883 15.0078 15.25 15.6406 15.7188 16.1094L19.2461 19.6328C19.7344 20.1211 20.5273 20.1211 21.0156 19.6328L24.6289 16.0195C25.1211 15.5312 25.1211 14.7422 24.6328 14.2539ZM17.4922 13.4336C16.9727 13.4336 16.5547 13.0156 16.5547 12.4961C16.5547 11.9766 16.9727 11.5586 17.4922 11.5586C18.0117 11.5586 18.4297 11.9766 18.4297 12.4961C18.4297 13.0117 18.0117 13.4336 17.4922 13.4336ZM8.75 9.99609C11.5117 9.99609 13.75 7.75781 13.75 4.99609C13.75 2.23828 11.5117 0 8.75 0C5.98828 0 3.75 2.23828 3.75 5C3.75 7.75781 5.98828 9.99609 8.75 9.99609ZM13.7422 14.3398V11.4844C13.2656 11.3438 12.7695 11.2422 12.25 11.2422H11.5977C10.7305 11.6406 9.76562 11.8672 8.75 11.8672C7.73438 11.8672 6.77344 11.6406 5.90234 11.2422H5.25C2.35156 11.2461 0 13.5977 0 16.4961V18.1211C0 19.1562 0.839844 19.9961 1.875 19.9961H15.625C16.2305 19.9961 16.7617 19.7031 17.1055 19.2578L14.8398 16.9922C14.1328 16.2852 13.7422 15.3438 13.7422 14.3398Z" fill="black"/>
</svg>