<svg xmlns="http://www.w3.org/2000/svg" width="57" height="35" viewBox="0 0 57 35" fill="none">
  <path d="M55.4269 7.94463L30.5837 0.311943C29.23 -0.103981 27.7693 -0.103981 26.4165 0.311943L1.5724 7.94463C-0.524135 8.58855 -0.524135 11.3611 1.5724 12.005L5.90353 13.3356C4.95323 14.5103 4.36898 15.9434 4.31109 17.5126C3.45341 18.0043 2.84957 18.8913 2.84957 19.9503C2.84957 20.9104 3.35544 21.7182 4.08398 22.2348L1.8102 32.4663C1.61248 33.356 2.28936 34.2004 3.20047 34.2004H8.19779C9.10979 34.2004 9.78667 33.356 9.58895 32.4663L7.31518 22.2348C8.04371 21.7182 8.54959 20.9104 8.54959 19.9503C8.54959 18.9198 7.97335 18.0577 7.15486 17.5572C7.22255 16.2195 7.90655 15.0367 8.99757 14.2868L26.4156 19.6386C27.2225 19.8862 28.7704 20.1952 30.5828 19.6386L55.4269 12.0059C57.5244 11.3611 57.5244 8.58944 55.4269 7.94463ZM31.42 22.363C28.8791 23.1432 26.714 22.7121 25.5784 22.363L12.6625 18.3953L11.3996 28.5003C11.3996 31.6487 19.0554 34.2004 28.4997 34.2004C37.9439 34.2004 45.5997 31.6487 45.5997 28.5003L44.3368 18.3944L31.42 22.363Z" fill="black"/>
</svg>