<svg width="32" height="33" viewBox="0 0 32 33" fill="none" xmlns="http://www.w3.org/2000/svg">
<g id="&#240;&#159;&#166;&#134; icon &#34;call&#34;">
<path id="Vector" d="M24.1566 32.0597C22.4716 32.0597 20.6971 31.657 18.863 30.8816C17.0736 30.1212 15.2693 29.0774 13.5098 27.8099C11.7651 26.5275 10.0801 25.096 8.48462 23.5303C6.90401 21.9348 5.47251 20.2498 4.20503 18.52C2.92265 16.7307 1.89376 14.9413 1.16309 13.2116C0.387698 11.3625 0 9.57316 0 7.88817C0 6.72507 0.20876 5.62162 0.61137 4.59273C1.02889 3.53402 1.69991 2.54986 2.60951 1.69991C3.75769 0.566636 5.0699 0 6.47158 0C7.05312 0 7.64958 0.134203 8.15657 0.372787C8.73812 0.641193 9.2302 1.0438 9.58807 1.58062L13.0475 6.45666C13.3607 6.8891 13.5993 7.30662 13.7633 7.72414C13.9571 8.17148 14.0615 8.61883 14.0615 9.05126C14.0615 9.6179 13.8975 10.1696 13.5843 10.6915C13.3607 11.0941 13.0177 11.5266 12.5853 11.959L11.5713 13.0177C11.5862 13.0624 11.6011 13.0923 11.616 13.1221C11.795 13.4352 12.1528 13.972 12.8388 14.7773C13.5694 15.6123 14.2554 16.3728 14.9413 17.0736C15.8211 17.9385 16.5517 18.6244 17.2377 19.1911C18.0876 19.9068 18.6393 20.2647 18.9674 20.4287L18.9376 20.5033L20.0261 19.4296C20.4884 18.9674 20.9357 18.6244 21.3681 18.4007C22.1883 17.8938 23.2321 17.8043 24.2759 18.2367C24.6636 18.4007 25.0811 18.6244 25.5284 18.9376L30.479 22.4567C31.0308 22.8295 31.4334 23.3066 31.6719 23.8733C31.8956 24.4399 32 24.9618 32 25.4837C32 26.1994 31.836 26.9152 31.5228 27.5862C31.2097 28.2572 30.822 28.8388 30.3299 29.3756C29.48 30.315 28.5555 30.986 27.4818 31.4185C26.4529 31.836 25.3346 32.0597 24.1566 32.0597ZM6.47158 2.23672C5.65144 2.23672 4.89096 2.5946 4.1603 3.31035C3.47437 3.95154 2.9972 4.65238 2.69897 5.41286C2.38583 6.18826 2.23672 7.00839 2.23672 7.88817C2.23672 9.27493 2.56477 10.781 3.22088 12.3318C3.89189 13.9124 4.83131 15.5527 6.02423 17.1929C7.21715 18.8332 8.57409 20.4287 10.0652 21.9348C11.5564 23.411 13.1668 24.7829 14.822 25.9907C16.4324 27.1687 18.0876 28.123 19.7279 28.809C22.2777 29.8975 24.6636 30.151 26.6319 29.3309C27.3924 29.0177 28.0634 28.5405 28.6747 27.8546C29.0177 27.4818 29.2861 27.0792 29.5098 26.6021C29.6887 26.2293 29.7782 25.8416 29.7782 25.4539C29.7782 25.2153 29.7335 24.9767 29.6142 24.7083C29.5694 24.6188 29.48 24.4548 29.1966 24.261L24.246 20.7418C23.9478 20.5331 23.6794 20.384 23.4259 20.2796C23.0979 20.1454 22.9637 20.0112 22.4567 20.3243C22.1584 20.4734 21.89 20.6971 21.5918 20.9953L20.4585 22.1137C19.877 22.6803 18.9823 22.8145 18.2964 22.561L17.8938 22.3821C17.2824 22.0541 16.5666 21.5471 15.7763 20.8761C15.0606 20.2647 14.2852 19.5489 13.3458 18.6244C12.6151 17.8788 11.8844 17.0885 11.124 16.2088C10.4231 15.3886 9.91612 14.6878 9.60298 14.1062L9.42404 13.6589C9.33458 13.3159 9.30475 13.1221 9.30475 12.9133C9.30475 12.3765 9.4986 11.8993 9.87139 11.5266L10.9897 10.3635C11.288 10.0652 11.5116 9.78192 11.6608 9.52843C11.7801 9.33458 11.8248 9.17055 11.8248 9.02144C11.8248 8.90215 11.7801 8.72321 11.7055 8.54427C11.6011 8.30569 11.4371 8.03728 11.2283 7.75396L7.76887 2.863C7.61976 2.65424 7.44082 2.50513 7.21715 2.40075C6.97857 2.29637 6.72507 2.23672 6.47158 2.23672ZM18.9376 20.5182L18.699 21.5322L19.1016 20.4884C19.027 20.4734 18.9674 20.4884 18.9376 20.5182Z" fill="black"/>
</g>
</svg>
