<svg xmlns="http://www.w3.org/2000/svg" width="42" height="40" viewBox="0 0 42 40" fill="none">
  <ellipse cx="21.2567" cy="20" rx="20.5316" ry="20" fill="#000"/>
  <path d="M12.0176 11H13.6624C14.6833 11 15.4868 11.8564 15.4017 12.8416L14.6171 22.0129C14.4848 23.5139 15.7042 24.803 17.2545 24.803H27.3218C28.6831 24.803 29.8741 23.7165 29.9781 22.3997L30.4886 15.4936C30.602 13.965 29.4109 12.7219 27.8323 12.7219H15.6286" stroke="white" stroke-width="1.5" stroke-miterlimit="10" stroke-linecap="round" stroke-linejoin="round"/>
  <path d="M25.488 29.4153C26.1406 29.4153 26.6696 28.9 26.6696 28.2643C26.6696 27.6286 26.1406 27.1133 25.488 27.1133C24.8354 27.1133 24.3064 27.6286 24.3064 28.2643C24.3064 28.9 24.8354 29.4153 25.488 29.4153Z" stroke="white" stroke-width="1.5" stroke-miterlimit="10" stroke-linecap="round" stroke-linejoin="round"/>
  <path d="M17.9258 29.4153C18.5783 29.4153 19.1074 28.9 19.1074 28.2643C19.1074 27.6286 18.5783 27.1133 17.9258 27.1133C17.2732 27.1133 16.7441 27.6286 16.7441 28.2643C16.7441 28.9 17.2732 29.4153 17.9258 29.4153Z" stroke="white" stroke-width="1.5" stroke-miterlimit="10" stroke-linecap="round" stroke-linejoin="round"/>
  <path d="M18.6345 16.5254H29.978" stroke="white" stroke-width="1.5" stroke-miterlimit="10" stroke-linecap="round" stroke-linejoin="round"/>
</svg>