<!-- <svg width="14" height="14" viewBox="0 0 14 14" fill="none" xmlns="http://www.w3.org/2000/svg">
<path id="Vector" d="M0 0.46875C0 0.34443 0.049167 0.225201 0.136685 0.137294C0.224203 0.0493861 0.342902 0 0.466671 0H1.86668C1.97078 2.88858e-05 2.07188 0.0350163 2.1539 0.0993982C2.23593 0.16378 2.29416 0.25386 2.31935 0.355312L2.69736 1.875H13.5335C13.6043 1.87502 13.6743 1.89126 13.738 1.92249C13.8017 1.95371 13.8575 1.99911 13.9011 2.05522C13.9448 2.11134 13.9751 2.1767 13.9898 2.24635C14.0045 2.316 14.0033 2.3881 13.9861 2.45719L12.5861 8.08219C12.5609 8.18364 12.5027 8.27372 12.4207 8.3381C12.3386 8.40248 12.2375 8.43747 12.1334 8.4375H3.73337C3.62927 8.43747 3.52817 8.40248 3.44615 8.3381C3.36413 8.27372 3.30589 8.18364 3.2807 8.08219L1.50268 0.9375H0.466671C0.342902 0.9375 0.224203 0.888114 0.136685 0.800206C0.049167 0.712299 0 0.59307 0 0.46875ZM2.93069 2.8125L4.09737 7.5H11.7694L12.9361 2.8125H2.93069ZM4.66671 10.3125C4.41917 10.3125 4.18177 10.4113 4.00674 10.5871C3.8317 10.7629 3.73337 11.0014 3.73337 11.25C3.73337 11.4986 3.8317 11.7371 4.00674 11.9129C4.18177 12.0887 4.41917 12.1875 4.66671 12.1875C4.91425 12.1875 5.15165 12.0887 5.32668 11.9129C5.50172 11.7371 5.60005 11.4986 5.60005 11.25C5.60005 11.0014 5.50172 10.7629 5.32668 10.5871C5.15165 10.4113 4.91425 10.3125 4.66671 10.3125ZM2.80003 11.25C2.80003 10.7527 2.99669 10.2758 3.34676 9.92418C3.69684 9.57254 4.17163 9.375 4.66671 9.375C5.16179 9.375 5.63658 9.57254 5.98665 9.92418C6.33673 10.2758 6.53339 10.7527 6.53339 11.25C6.53339 11.7473 6.33673 12.2242 5.98665 12.5758C5.63658 12.9275 5.16179 13.125 4.66671 13.125C4.17163 13.125 3.69684 12.9275 3.34676 12.5758C2.99669 12.2242 2.80003 11.7473 2.80003 11.25ZM11.2001 10.3125C10.9526 10.3125 10.7152 10.4113 10.5401 10.5871C10.3651 10.7629 10.2668 11.0014 10.2668 11.25C10.2668 11.4986 10.3651 11.7371 10.5401 11.9129C10.7152 12.0887 10.9526 12.1875 11.2001 12.1875C11.4476 12.1875 11.685 12.0887 11.8601 11.9129C12.0351 11.7371 12.1334 11.4986 12.1334 11.25C12.1334 11.0014 12.0351 10.7629 11.8601 10.5871C11.685 10.4113 11.4476 10.3125 11.2001 10.3125ZM9.33342 11.25C9.33342 10.7527 9.53009 10.2758 9.88016 9.92418C10.2302 9.57254 10.705 9.375 11.2001 9.375C11.6952 9.375 12.17 9.57254 12.52 9.92418C12.8701 10.2758 13.0668 10.7527 13.0668 11.25C13.0668 11.7473 12.8701 12.2242 12.52 12.5758C12.17 12.9275 11.6952 13.125 11.2001 13.125C10.705 13.125 10.2302 12.9275 9.88016 12.5758C9.53009 12.2242 9.33342 11.7473 9.33342 11.25Z" fill="black"/>
</svg> -->

<svg xmlns="http://www.w3.org/2000/svg" width="16" height="16" fill="currentColor" class="bi bi-cart" viewBox="0 0 16 16">
  <path d="M0 1.5A.5.5 0 0 1 .5 1H2a.5.5 0 0 1 .485.379L2.89 3H14.5a.5.5 0 0 1 .491.592l-1.5 8A.5.5 0 0 1 13 12H4a.5.5 0 0 1-.491-.408L2.01 3.607 1.61 2H.5a.5.5 0 0 1-.5-.5M3.102 4l1.313 7h8.17l1.313-7zM5 12a2 2 0 1 0 0 4 2 2 0 0 0 0-4m7 0a2 2 0 1 0 0 4 2 2 0 0 0 0-4m-7 1a1 1 0 1 1 0 2 1 1 0 0 1 0-2m7 0a1 1 0 1 1 0 2 1 1 0 0 1 0-2" stroke="black" stroke-width="0.5" />
</svg>