<svg xmlns="http://www.w3.org/2000/svg" width="44" height="43" viewBox="0 0 44 43" fill="none">
  <path d="M42.6889 23.8041H23.4964L36.2782 36.851C36.7667 37.3496 37.5707 37.3901 38.073 36.9071C41.2031 33.897 43.3562 29.8392 43.9879 25.2778C44.0963 24.4968 43.4614 23.8041 42.6889 23.8041ZM41.4086 18.4543C40.7421 8.59173 33.0211 0.710618 23.3589 0.0303291C22.6213 -0.0216833 22.0001 0.613198 22.0001 1.36779V19.8413H40.0991C40.8384 19.8413 41.4595 19.2072 41.4086 18.4543ZM18.1178 23.8041V4.21361C18.1178 3.42517 17.4392 2.77708 16.6748 2.88771C7.03611 4.27801 -0.33144 12.8733 0.0115003 23.1742C0.364146 33.7533 9.28787 42.4287 19.6569 42.2958C23.7334 42.2438 27.5001 40.903 30.5971 38.6607C31.236 38.1983 31.2781 37.2382 30.724 36.6726L18.1178 23.8041Z" fill="black"/>
</svg>