<svg xmlns="http://www.w3.org/2000/svg" width="53" height="40" viewBox="0 0 53 40" fill="none">
  <path d="M43.9457 8.07139C36.9953 4.1528 27.7573 3.26084 20.0832 4.44266C11.4976 -2.62361 1.87651 0.626598 0 1.56096C0 1.56096 6.60256 6.34838 5.53014 10.5414C-2.28668 17.341 1.42929 24.9114 5.53014 28.4862C6.60256 32.6792 0 37.4667 0 37.4667C1.85844 38.4041 11.4533 41.6443 20.0832 34.6142C27.7401 35.7884 36.9781 34.9041 43.9457 30.9786C54.7205 25.1088 54.7557 13.9713 43.9457 8.07062V8.07139ZM26.5783 30.9408C23.8913 30.9474 21.2149 30.6527 18.6178 30.0643L16.8316 31.536C15.8395 32.357 14.7286 33.0666 13.5259 33.6475C12.0666 34.2744 10.4814 34.6598 8.85401 34.7831C8.94435 34.6459 9.02386 34.5086 9.10427 34.3791C10.8913 31.5524 11.3732 29.0163 10.5498 26.7709C7.61083 24.7965 5.85178 22.2733 5.85178 19.5142C5.85178 13.1926 15.134 8.07139 26.5783 8.07139C38.0225 8.07139 47.3048 13.1926 47.3048 19.5142C47.3048 25.8358 38.0225 30.9408 26.5783 30.9408ZM16.6347 22.2355C15.8142 22.2454 15.0225 21.9774 14.4332 21.4901C13.8438 21.0029 13.5049 20.3361 13.4906 19.636C13.4274 16.1368 19.6189 16.0605 19.6812 19.552V19.5913C19.685 19.9358 19.6092 20.2775 19.4581 20.5969C19.307 20.9164 19.0836 21.2073 18.8007 21.453C18.5177 21.6988 18.1808 21.8945 17.8092 22.029C17.4375 22.1636 17.0384 22.2343 16.6347 22.2371V22.2355ZM23.2996 19.636C23.2282 16.1368 29.4197 16.0528 29.4911 19.5443V19.5913C29.5263 23.0666 23.371 23.1044 23.2996 19.636ZM36.2535 22.2355C35.4329 22.2454 34.6412 21.9774 34.0517 21.4902C33.4622 21.0029 33.1231 20.3362 33.1086 19.636C33.0462 16.1368 39.2377 16.0605 39.3 19.552V19.5913C39.3052 19.9361 39.2303 20.2783 39.0797 20.5983C38.9291 20.9182 38.7057 21.2096 38.4225 21.4555C38.1393 21.7015 37.8018 21.8972 37.4296 22.0313C37.0573 22.1654 36.6576 22.2354 36.2535 22.2371V22.2355Z" fill="black"/>
</svg>