<svg xmlns="http://www.w3.org/2000/svg" width="188" height="170" viewBox="0 0 188 170" fill="none">
  <circle cx="146.5" cy="128.5" r="41.5" fill="#DD127B"/>
  <circle cx="75" cy="75" r="72.5" fill="white" stroke="#DD127B" stroke-width="5"/>
  <path d="M151.321 143.143C146.231 143.143 142.092 139.005 142.092 133.914V123.229C142.092 118.138 146.231 114 151.321 114C156.411 114 160.549 118.138 160.549 123.229V133.914C160.549 139.005 156.411 143.143 151.321 143.143ZM151.321 116.914C147.843 116.914 145.007 119.751 145.007 123.229V133.914C145.007 137.392 147.843 140.229 151.321 140.229C154.799 140.229 157.635 137.392 157.635 133.914V123.229C157.635 119.751 154.799 116.914 151.321 116.914Z" fill="white"/>
  <path d="M151.32 149.941C142.325 149.941 135 142.617 135 133.621V130.318C135 129.522 135.661 128.861 136.457 128.861C137.254 128.861 137.914 129.522 137.914 130.318V133.621C137.914 141.004 143.937 147.027 151.32 147.027C158.703 147.027 164.726 141.004 164.726 133.621V130.318C164.726 129.522 165.386 128.861 166.183 128.861C166.979 128.861 167.64 129.522 167.64 130.318V133.621C167.64 142.617 160.315 149.941 151.32 149.941Z" fill="white"/>
  <path d="M154.021 125.523C153.866 125.523 153.691 125.504 153.516 125.445C152.098 124.921 150.543 124.921 149.125 125.445C148.367 125.717 147.532 125.329 147.26 124.571C146.988 123.813 147.376 122.978 148.134 122.706C150.194 121.968 152.467 121.968 154.526 122.706C155.284 122.978 155.672 123.813 155.4 124.571C155.167 125.154 154.604 125.523 154.021 125.523Z" fill="white"/>
  <path d="M152.875 129.637C152.739 129.637 152.623 129.617 152.487 129.579C151.709 129.365 150.913 129.365 150.136 129.579C149.359 129.792 148.562 129.326 148.348 128.549C148.135 127.791 148.601 126.995 149.378 126.781C150.641 126.431 152.001 126.431 153.264 126.781C154.041 126.995 154.507 127.791 154.293 128.568C154.119 129.209 153.516 129.637 152.875 129.637Z" fill="white"/>
  <path d="M151.321 155.773C150.524 155.773 149.864 155.113 149.864 154.316V148.487C149.864 147.691 150.524 147.03 151.321 147.03C152.117 147.03 152.778 147.691 152.778 148.487V154.316C152.778 155.113 152.117 155.773 151.321 155.773Z" fill="white"/>
  <path d="M107.513 57.4095L96.4827 101.692C95.6972 104.998 92.7516 107.289 89.3477 107.289H46.3414C41.3993 107.289 37.8645 102.445 39.3374 97.699L53.1164 53.4494C54.0655 50.3728 56.913 48.2451 60.1205 48.2451H100.378C103.487 48.2451 106.072 50.1435 107.152 52.7618C107.774 54.1692 107.905 55.773 107.513 57.4095Z" stroke="#DD127B" stroke-width="7.61227" stroke-miterlimit="10"/>
  <path d="M88.104 107.287H103.749C107.971 107.287 111.276 103.719 110.982 99.4974L107.742 54.9199" stroke="#DD127B" stroke-width="7.61227" stroke-miterlimit="10" stroke-linecap="round" stroke-linejoin="round"/>
  <path d="M67.4189 56.1721L70.8228 42.0332" stroke="#DD127B" stroke-width="7.61227" stroke-miterlimit="10" stroke-linecap="round" stroke-linejoin="round"/>
  <path d="M89.3477 56.2044L92.4242 42" stroke="#DD127B" stroke-width="7.61227" stroke-miterlimit="10" stroke-linecap="round" stroke-linejoin="round"/>
  <path d="M60.9387 74.5713H87.1222" stroke="#DD127B" stroke-width="7.61227" stroke-miterlimit="10" stroke-linecap="round" stroke-linejoin="round"/>
  <path d="M57.6658 87.6504H83.8492" stroke="#DD127B" stroke-width="7.61227" stroke-miterlimit="10" stroke-linecap="round" stroke-linejoin="round"/>
</svg>