<svg xmlns="http://www.w3.org/2000/svg" width="34" height="46" viewBox="0 0 34 46" fill="none">
  <path d="M19.8333 12.0417V0H2.125C0.947396 0 0 0.947396 0 2.125V43.2083C0 44.3859 0.947396 45.3333 2.125 45.3333H31.875C33.0526 45.3333 34 44.3859 34 43.2083V14.1667H21.9583C20.7896 14.1667 19.8333 13.2104 19.8333 12.0417ZM25.5 32.9375C25.5 33.5219 25.0219 34 24.4375 34H9.5625C8.97812 34 8.5 33.5219 8.5 32.9375V32.2292C8.5 31.6448 8.97812 31.1667 9.5625 31.1667H24.4375C25.0219 31.1667 25.5 31.6448 25.5 32.2292V32.9375ZM25.5 27.2708C25.5 27.8552 25.0219 28.3333 24.4375 28.3333H9.5625C8.97812 28.3333 8.5 27.8552 8.5 27.2708V26.5625C8.5 25.9781 8.97812 25.5 9.5625 25.5H24.4375C25.0219 25.5 25.5 25.9781 25.5 26.5625V27.2708ZM25.5 20.8958V21.6042C25.5 22.1885 25.0219 22.6667 24.4375 22.6667H9.5625C8.97812 22.6667 8.5 22.1885 8.5 21.6042V20.8958C8.5 20.3115 8.97812 19.8333 9.5625 19.8333H24.4375C25.0219 19.8333 25.5 20.3115 25.5 20.8958ZM34 10.7932V11.3333H22.6667V0H23.2068C23.7734 0 24.3135 0.221354 24.712 0.619792L33.3802 9.29687C33.7786 9.69531 34 10.2354 34 10.7932Z" fill="black"/>
</svg>