<svg xmlns="http://www.w3.org/2000/svg" width="20" height="23" viewBox="0 0 20 23" fill="none">
  <path d="M19.3475 7.1H0.5325C0.238427 7.1 0 6.86157 0 6.5675V4.97C0 3.79362 0.953619 2.84 2.13 2.84H4.26V0.5325C4.26 0.238427 4.49843 0 4.7925 0H6.5675C6.86157 0 7.1 0.238427 7.1 0.5325V2.84H12.78V0.5325C12.78 0.238427 13.0184 0 13.3125 0H15.0875C15.3816 0 15.62 0.238427 15.62 0.5325V2.84H17.75C18.9264 2.84 19.88 3.79362 19.88 4.97V6.5675C19.88 6.86157 19.6416 7.1 19.3475 7.1ZM0.5325 8.52H19.3475C19.6416 8.52 19.88 8.75843 19.88 9.0525V20.59C19.88 21.7664 18.9264 22.72 17.75 22.72H2.13C0.953619 22.72 0 21.7664 0 20.59V9.0525C0 8.75843 0.238427 8.52 0.5325 8.52ZM15.3225 12.7776L14.0725 11.5175C13.8654 11.3087 13.5283 11.3073 13.3195 11.5145L8.61407 16.182L6.57371 14.1251C6.36661 13.9164 6.02941 13.915 5.82062 14.1221L4.56051 15.3722C4.35172 15.5793 4.35035 15.9164 4.55749 16.1252L8.22291 19.8203C8.43001 20.0291 8.76717 20.0304 8.97595 19.8233L15.3195 13.5307C15.5283 13.3236 15.5297 12.9864 15.3225 12.7776Z" fill="black"/>
</svg>