<svg class="svg-icon" style="width: 1em;height: 1em;vertical-align: middle;fill: currentColor;overflow: hidden;" viewBox="0 0 1024 1024" version="1.1" xmlns="http://www.w3.org/2000/svg"><path d="M619.172701 938.7732a21.3067 21.3067 0 0 1-14.91469-36.22139l201.561381-202.839783a21.3067 21.3067 0 0 1 30.255514 30.255514l-201.561381 202.413649a21.732834 21.732834 0 0 1-15.340824 6.39201z"  /><path d="M849.28506 896.1598a21.3067 21.3067 0 0 1-21.3067-21.3067v-170.453599h-170.453599a21.732834 21.732834 0 0 1-21.3067-21.3067 21.3067 21.3067 0 0 1 21.3067-21.3067h190.908031a21.3067 21.3067 0 0 1 14.91469 5.965876 22.585102 22.585102 0 0 1 6.39201 15.340824v190.481897a21.3067 21.3067 0 0 1-21.3067 21.3067zM556.957137 555.252601a234.3737 234.3737 0 1 1 234.373699-234.3737 234.799834 234.799834 0 0 1-234.373699 234.3737z m0-426.133999a191.7603 191.7603 0 1 0 191.7603 191.760299 192.186434 192.186434 0 0 0-191.7603-191.760299z"  /><path d="M173.436538 896.1598a21.3067 21.3067 0 0 1-21.3067-21.3067 362.640033 362.640033 0 0 1 362.213899-362.213899h85.2268a21.3067 21.3067 0 0 1 0 42.6134h-85.2268a320.026633 320.026633 0 0 0-319.600499 319.600499 21.3067 21.3067 0 0 1-21.3067 21.3067z"  /></svg>