<svg xmlns="http://www.w3.org/2000/svg" width="125" height="125" viewBox="0 0 125 125" fill="none">
  <path d="M79.5594 0H45.4346V27.25H79.5594V0Z" fill="#DD127B"/>
  <path d="M88.9407 0V27.25H124.191C121.003 10.0625 108.316 0.0625 88.9407 0Z" fill="#DD127B"/>
  <path d="M0 36.6211V88.6837C0 111.434 13.5625 124.996 36.3125 124.996H88.6875C111.438 124.996 125 111.434 125 88.6837V36.6211H0ZM77.75 88.6212L64.75 96.1212C62 97.6837 59.3125 98.4962 56.8125 98.4962C54.9375 98.4962 53.25 98.0587 51.6875 97.1837C48.0625 95.1212 46.0625 90.8712 46.0625 85.3712V70.3712C46.0625 64.8712 48.0625 60.6212 51.6875 58.5587C55.3125 56.4337 59.9375 56.8087 64.75 59.6212L77.75 67.1212C82.5625 69.8712 85.1875 73.7462 85.1875 77.9337C85.1875 82.1212 82.5 85.8087 77.75 88.6212Z" fill="#DD127B"/>
  <path d="M36.0557 0C16.6807 0.0625 3.99317 10.0625 0.805664 27.25H36.0557V0Z" fill="#DD127B"/>
</svg>