<svg xmlns="http://www.w3.org/2000/svg" width="47" height="38" viewBox="0 0 47 38" fill="none">
  <path d="M37.0125 25.8482H10.0169C9.69375 25.8482 9.42937 26.1125 9.42937 26.4357L9.42203 29.9607C9.42203 30.2838 9.68641 30.5482 10.0095 30.5482H37.0125C37.3356 30.5482 37.6 30.2838 37.6 29.9607V26.4357C37.6 26.1125 37.3356 25.8482 37.0125 25.8482ZM37.0125 32.8982H9.99484C9.67172 32.8982 9.40734 33.1625 9.40734 33.4857L9.4 37.0107C9.4 37.3338 9.66437 37.5982 9.9875 37.5982H37.0125C37.3356 37.5982 37.6 37.3338 37.6 37.0107V33.4857C37.6 33.1625 37.3356 32.8982 37.0125 32.8982ZM37.0125 18.7982H10.0316C9.70844 18.7982 9.44406 19.0625 9.44406 19.3857L9.43672 22.9107C9.43672 23.2338 9.70109 23.4982 10.0242 23.4982H37.0125C37.3356 23.4982 37.6 23.2338 37.6 22.9107V19.3857C37.6 19.0625 37.3356 18.7982 37.0125 18.7982ZM44.8336 8.59036L24.8512 0.269887C24.4217 0.0917127 23.9613 0 23.4963 0C23.0313 0 22.5709 0.0917127 22.1414 0.269887L2.16641 8.59036C0.859219 9.14114 0 10.419 0 11.8436V37.0107C0 37.3338 0.264375 37.5982 0.5875 37.5982H6.4625C6.78562 37.5982 7.05 37.3338 7.05 37.0107V18.7982C7.05 17.5057 8.12219 16.4482 9.44406 16.4482H37.5559C38.8778 16.4482 39.95 17.5057 39.95 18.7982V37.0107C39.95 37.3338 40.2144 37.5982 40.5375 37.5982H46.4125C46.7356 37.5982 47 37.3338 47 37.0107V11.8436C47 10.419 46.1408 9.14114 44.8336 8.59036Z" fill="black"/>
</svg>