<svg xmlns="http://www.w3.org/2000/svg" width="54" height="44" viewBox="0 0 54 44" fill="none">
  <path d="M17.5501 29.6999C17.3484 29.6999 17.1468 29.7295 16.9544 29.7919C15.8609 30.1471 14.7109 30.3749 13.5001 30.3749C12.2893 30.3749 11.1393 30.1471 10.045 29.7919C9.85258 29.7295 9.65177 29.6999 9.45011 29.6999C4.21381 29.6999 -0.0277074 33.9592 0.000136306 39.2022C0.0119488 41.4179 1.8336 43.1999 4.05013 43.1999H22.9501C25.1666 43.1999 26.9883 41.4179 27.0001 39.2022C27.0279 33.9592 22.7864 29.6999 17.5501 29.6999ZM13.5001 26.9999C17.9737 26.9999 21.6001 23.3735 21.6001 18.9C21.6001 14.4264 17.9737 10.8 13.5001 10.8C9.02655 10.8 5.40012 14.4264 5.40012 18.9C5.40012 23.3735 9.02655 26.9999 13.5001 26.9999ZM49.95 0H17.5501C15.3167 0 13.5001 1.87734 13.5001 4.18415V8.09998C15.4762 8.09998 17.3054 8.67204 18.9001 9.60185V5.39999H48.6V29.6999H43.2V24.2999H32.4001V29.6999H25.9673C27.5789 31.1081 28.7618 32.9678 29.3162 35.0999H49.95C52.1834 35.0999 54 33.2226 54 30.9158V4.18415C54 1.87734 52.1834 0 49.95 0Z" fill="black"/>
</svg>