<svg xmlns="http://www.w3.org/2000/svg" width="32" height="43" viewBox="0 0 32 43" fill="none">
  <path d="M28 5.33334H21.3333C21.3333 2.39167 18.9417 0 16 0C13.0583 0 10.6667 2.39167 10.6667 5.33334H4C1.79167 5.33334 0 7.125 0 9.33334V38.6667C0 40.875 1.79167 42.6667 4 42.6667H28C30.2083 42.6667 32 40.875 32 38.6667V9.33334C32 7.125 30.2083 5.33334 28 5.33334ZM8 35.3334C6.89167 35.3334 6 34.4417 6 33.3334C6 32.225 6.89167 31.3333 8 31.3333C9.10833 31.3333 10 32.225 10 33.3334C10 34.4417 9.10833 35.3334 8 35.3334ZM8 27.3333C6.89167 27.3333 6 26.4417 6 25.3333C6 24.225 6.89167 23.3333 8 23.3333C9.10833 23.3333 10 24.225 10 25.3333C10 26.4417 9.10833 27.3333 8 27.3333ZM8 19.3333C6.89167 19.3333 6 18.4417 6 17.3333C6 16.225 6.89167 15.3333 8 15.3333C9.10833 15.3333 10 16.225 10 17.3333C10 18.4417 9.10833 19.3333 8 19.3333ZM16 3.33333C17.1083 3.33333 18 4.225 18 5.33334C18 6.44167 17.1083 7.33334 16 7.33334C14.8917 7.33334 14 6.44167 14 5.33334C14 4.225 14.8917 3.33333 16 3.33333ZM26.6667 34C26.6667 34.3667 26.3667 34.6667 26 34.6667H14C13.6333 34.6667 13.3333 34.3667 13.3333 34V32.6667C13.3333 32.3 13.6333 32 14 32H26C26.3667 32 26.6667 32.3 26.6667 32.6667V34ZM26.6667 26C26.6667 26.3667 26.3667 26.6667 26 26.6667H14C13.6333 26.6667 13.3333 26.3667 13.3333 26V24.6667C13.3333 24.3 13.6333 24 14 24H26C26.3667 24 26.6667 24.3 26.6667 24.6667V26ZM26.6667 18C26.6667 18.3667 26.3667 18.6667 26 18.6667H14C13.6333 18.6667 13.3333 18.3667 13.3333 18V16.6667C13.3333 16.3 13.6333 16 14 16H26C26.3667 16 26.6667 16.3 26.6667 16.6667V18Z" fill="black"/>
</svg>