<svg xmlns="http://www.w3.org/2000/svg" width="196" height="170" viewBox="0 0 196 170" fill="none">
  <circle cx="154.5" cy="128.5" r="41.5" fill="#DD127B"/>
  <circle cx="75" cy="75" r="72.5" fill="white" stroke="#DD127B" stroke-width="5"/>
  <path d="M107.226 71.7073C109.531 73.2973 109.531 76.7027 107.226 78.2927L61.7711 109.646C59.1176 111.476 55.5 109.576 55.5 106.353L55.5 43.6471C55.5 40.4236 59.1176 38.5241 61.7712 40.3544L107.226 71.7073Z" fill="#DD127B"/>
  <path d="M155.999 129.002C162.075 129.002 167.001 124.077 167.001 118.001C167.001 111.925 162.075 107 155.999 107C149.924 107 144.998 111.925 144.998 118.001C144.998 124.077 149.924 129.002 155.999 129.002Z" fill="white"/>
  <path d="M156 134.505C144.977 134.505 136 141.898 136 151.006C136 151.623 136.484 152.107 137.1 152.107H174.9C175.516 152.107 176 151.623 176 151.006C176 141.898 167.023 134.505 156 134.505Z" fill="white"/>
</svg>