<svg xmlns="http://www.w3.org/2000/svg" width="22" height="22" viewBox="0 0 22 22" fill="none">
  <path d="M16.7706 2.31452C19.4659 4.23972 21.22 7.3885 21.22 10.9523C21.22 16.8049 16.4797 21.5494 10.6314 21.5623C4.79162 21.5751 0.00856426 16.8134 7.80846e-06 10.9694C-0.00427042 7.40561 1.7498 4.24828 4.4408 2.3188C4.94136 1.96371 5.63871 2.11344 5.93818 2.64822L6.61414 3.8504C6.86656 4.29962 6.74677 4.86862 6.33178 5.17665C4.55632 6.49435 3.42259 8.58212 3.42259 10.948C3.41831 14.8968 6.60986 18.1397 10.61 18.1397C14.5289 18.1397 17.8231 14.9652 17.7974 10.9052C17.7846 8.68908 16.7407 6.54996 14.8839 5.17237C14.469 4.86434 14.3534 4.29534 14.6059 3.8504L15.2818 2.64822C15.5813 2.11772 16.2744 1.95943 16.7706 2.31452ZM12.3213 11.2945V1.02677C12.3213 0.45777 11.8635 0 11.2945 0H9.92549C9.35648 0 8.89871 0.45777 8.89871 1.02677V11.2945C8.89871 11.8635 9.35648 12.3213 9.92549 12.3213H11.2945C11.8635 12.3213 12.3213 11.8635 12.3213 11.2945Z" fill="black"/>
</svg>