<svg xmlns="http://www.w3.org/2000/svg" width="18" height="18" viewBox="0 0 18 18" fill="none">
  <path d="M8.58224 17.1645C3.85154 17.1645 0 13.3129 0 8.58223C0 3.85154 3.85154 0 8.58224 0C13.3129 0 17.1645 3.85154 17.1645 8.58223C17.1645 13.3129 13.3129 17.1645 8.58224 17.1645ZM8.58224 1.25594C4.53812 1.25594 1.25594 4.54649 1.25594 8.58223C1.25594 12.618 4.53812 15.9085 8.58224 15.9085C12.6264 15.9085 15.9085 12.618 15.9085 8.58223C15.9085 4.54649 12.6264 1.25594 8.58224 1.25594Z" fill="black"/>
  <path d="M17.3739 18.0026C17.2149 18.0026 17.0558 17.944 16.9302 17.8184L15.2556 16.1439C15.0128 15.901 15.0128 15.4991 15.2556 15.2563C15.4984 15.0135 15.9003 15.0135 16.1431 15.2563L17.8177 16.9309C18.0605 17.1737 18.0605 17.5756 17.8177 17.8184C17.6921 17.944 17.533 18.0026 17.3739 18.0026Z" fill="black"/>
</svg>