<svg xmlns="http://www.w3.org/2000/svg" width="30" height="22" viewBox="0 0 30 22" fill="none">
  <path d="M26.9163 5.25761C26.9354 5.48834 26.9354 5.71912 26.9354 5.94985C26.9354 12.9875 20.7488 21.0964 9.44166 21.0964C5.95813 21.0964 2.7221 20.2229 0 18.7066C0.494943 18.756 0.970785 18.7725 1.48477 18.7725C4.3591 18.7725 7.00509 17.932 9.11804 16.4981C6.41499 16.4486 4.14974 14.9158 3.36927 12.8062C3.75001 12.8556 4.1307 12.8886 4.53049 12.8886C5.0825 12.8886 5.63457 12.8226 6.1485 12.7073C3.33124 12.2128 1.21823 10.0702 1.21823 7.48263V7.41673C2.03673 7.81229 2.98859 8.05951 3.9974 8.09243C2.3413 7.13648 1.25631 5.50483 1.25631 3.65887C1.25631 2.67 1.56083 1.76351 2.09386 0.972389C5.12053 4.20278 9.67006 6.31239 14.7715 6.54317C14.6764 6.14761 14.6193 5.73561 14.6193 5.32356C14.6193 2.3898 17.3604 0 20.7678 0C22.5381 0 24.137 0.64278 25.2602 1.68112C26.6497 1.45039 27.9822 1.00537 29.1625 0.395561C28.7055 1.63171 27.7348 2.67005 26.4594 3.32927C27.6967 3.21395 28.896 2.91722 30 2.50522C29.1626 3.56 28.1156 4.49941 26.9163 5.25761Z" fill="black"/>
</svg>