<svg xmlns="http://www.w3.org/2000/svg" width="73" height="52" viewBox="0 0 73 52" fill="none">
  <path d="M61.32 22.1966C61.7877 20.9761 62.05 19.6416 62.05 18.25C62.05 12.2047 57.1453 7.30001 51.1 7.30001C48.853 7.30001 46.7542 7.98438 45.0205 9.14782C41.8609 3.67281 35.9639 0 29.2 0C19.1169 0 10.95 8.16688 10.95 18.25C10.95 18.558 10.9614 18.866 10.9728 19.1739C4.58531 21.421 0 27.5119 0 34.675C0 43.743 7.35703 51.1 16.425 51.1H58.4C66.4642 51.1 73 44.5643 73 36.5C73 29.4396 67.9812 23.5425 61.32 22.1966ZM44.8722 29.2H37.4125V41.975C37.4125 42.9788 36.5913 43.8 35.5875 43.8H30.1125C29.1088 43.8 28.2875 42.9788 28.2875 41.975V29.2H20.8278C19.1967 29.2 18.3869 27.2381 19.5389 26.0861L31.5611 14.0639C32.2683 13.3567 33.4317 13.3567 34.1389 14.0639L46.1611 26.0861C47.3131 27.2381 46.4919 29.2 44.8722 29.2Z" fill="black"/>
</svg>