<svg xmlns="http://www.w3.org/2000/svg" width="21" height="25" viewBox="0 0 21 25" fill="none">
  <path d="M20.3207 7.8125C20.6283 7.8125 20.88 7.54883 20.88 7.22656V5.27344C20.88 4.95117 20.6283 4.6875 20.3207 4.6875H19.3886V2.34375C19.3886 1.0498 18.3865 0 17.1514 0H2.23714C1.00205 0 0 1.0498 0 2.34375V22.6563C0 23.9502 1.00205 25 2.23714 25H17.1514C18.3865 25 19.3886 23.9502 19.3886 22.6563V20.3125H20.3207C20.6283 20.3125 20.88 20.0488 20.88 19.7266V17.7734C20.88 17.4512 20.6283 17.1875 20.3207 17.1875H19.3886V14.0625H20.3207C20.6283 14.0625 20.88 13.7988 20.88 13.4766V11.5234C20.88 11.2012 20.6283 10.9375 20.3207 10.9375H19.3886V7.8125H20.3207ZM9.69429 6.25C11.3395 6.25 12.6771 7.65137 12.6771 9.375C12.6771 11.0986 11.3395 12.5 9.69429 12.5C8.04905 12.5 6.71143 11.0986 6.71143 9.375C6.71143 7.65137 8.04905 6.25 9.69429 6.25ZM14.9143 17.8125C14.9143 18.3301 14.4482 18.75 13.8703 18.75H5.51829C4.94036 18.75 4.47429 18.3301 4.47429 17.8125V16.875C4.47429 15.3223 5.87716 14.0625 7.60629 14.0625H7.83932C8.41259 14.3115 9.03712 14.4531 9.69429 14.4531C10.3514 14.4531 10.9806 14.3115 11.5492 14.0625H11.7823C13.5114 14.0625 14.9143 15.3223 14.9143 16.875V17.8125Z" fill="black"/>
</svg>